<svg width="180" height="500" viewBox="0 0 180 500" fill="none" xmlns="http://www.w3.org/2000/svg">
<path d="M99.0079 213.087C97.2623 211.195 100.56 210.199 101.763 209.026C107.725 203.213 103.418 193.026 98.5394 187.856C91.3489 180.235 87.0172 189.019 89.1818 196.286C91.6982 204.733 95.6625 213.059 100.947 220.128C103.673 223.774 109.898 231.497 115.516 229.804C121.198 228.091 121.249 219.416 120.626 214.927C118.943 202.81 113.789 190.203 108.25 179.38C97.9491 159.253 82.6882 141.127 69.2279 123.138C61.3703 112.637 52.251 100.574 44.0817 90.0697C42.8369 88.469 34.7731 75.8758 30.7878 74.9445C29.2055 74.5748 30.473 78.2652 30.9569 79.8164C32.6613 85.2808 36.8634 95.1037 38.7933 99.564C50.7795 127.266 63.9231 154.431 74.9309 182.554C91.3127 224.407 106.215 267.026 118.23 310.348C128.768 348.344 135.665 386.318 140.455 425.324" stroke="white" stroke-width="5" stroke-linecap="round"/>
<path d="M119.55 284.338C122.067 286.521 123.505 289.542 125.828 291.945C126.689 292.836 128.09 294.013 126.461 292.173C124.365 289.805 122.153 287.504 119.926 285.259C119.814 285.147 117.132 282.175 116.706 282.744C115.664 284.136 119.977 288.141 120.71 288.807C128.5 295.891 137.883 302.058 147.384 306.514C147.74 306.681 152.399 309.194 153.053 308.684C153.773 308.123 147.875 304.339 147.792 304.291C145.198 302.786 126.681 291.621 125.03 295.732C124.281 297.598 125.595 300.708 126.232 302.386C127.948 306.914 130.478 311.246 132.94 315.404C133.825 316.9 136.913 321.108 135.953 319.66C134.438 317.374 132.654 315.274 130.981 313.106C129.777 311.544 128.294 308.742 126.393 307.862C125.826 307.599 127.815 312.98 127.992 313.341C129.846 317.12 136.771 327.663 135.012 323.838C134.439 322.591 130.05 317.253 130.172 321.144C130.257 323.851 131.62 326.565 132.743 328.97C133.269 330.098 134.742 331.86 134.766 333.154C134.77 333.339 133.567 332.227 133.49 332.159C132.476 331.26 132.859 333.3 132.922 333.787C133.069 334.92 135.399 339.818 134.357 340.137C133.303 340.459 134.569 345.317 134.704 345.908C134.977 347.11 135.543 348.598 135.226 349.85C134.447 352.93 134.461 355.214 134.397 358.428" stroke="white" stroke-width="5" stroke-linecap="square"/>
<path d="M63.5645 230.305C68.0901 232.578 72.7658 234.578 76.9056 237.532C80.3428 239.986 73.6525 238.943 72.199 238.776C68.7471 238.381 71.4527 241.828 72.8099 243.039C73.5383 243.689 80.2163 249.024 79.6668 249.291C77.9308 250.134 76.519 249.698 77.8345 252.284C79.0625 254.697 83.8285 257.573 84.2492 259.965C84.4522 261.12 80.7293 260.067 81.0127 261.679C81.6714 265.425 86.5841 265.995 87.5524 268.888C87.6425 269.158 84.8325 269.37 85.0775 270.988C85.5405 274.047 88.4988 274.944 90.2544 277.154C90.9865 278.075 89.2145 277.604 89.0661 278.681C88.6354 281.806 91.2988 283.223 92.5922 285.518C93.642 287.38 98.0445 291.684 97.6807 293.745C97.4904 294.823 93.3662 292.507 92.6681 294.037C90.6565 298.444 99.7404 301.119 100.42 304.987" stroke="white" stroke-width="5" stroke-linecap="round"/>
<path d="M106.401 306.847L106.39 306.232" stroke="white" stroke-width="5" stroke-linecap="round"/>
</svg>
